<svg width="86" height="62" viewBox="0 0 86 62" fill="none" xmlns="http://www.w3.org/2000/svg">
<path d="M41.9019 58.8526C50.5915 58.8718 58.914 57.6392 66.7071 54.5977C77.2688 50.4772 82.1347 43.6098 82.7977 34.7702C82.9662 32.7953 82.8361 30.812 82.4099 28.8601C81.6725 25.3923 79.6103 22.1708 76.4849 19.6042C70.0761 14.3056 62.5374 10.7038 52.8347 10.3708C52.2314 10.33 51.6341 10.2475 51.0501 10.1243C50.3955 10.0122 49.9118 9.7305 49.9702 9.16381C50.0286 8.59713 50.5831 8.37622 51.2211 8.28337C52.2723 8.17133 53.3387 8.17133 54.39 8.28337C62.1622 8.78602 68.7502 11.3153 74.6085 15.154C78.9449 17.997 82.5892 21.221 84.2737 25.4952C86.5128 31.178 86.2668 36.8576 83.8568 42.4828C81.1298 48.9085 75.6843 53.5124 67.8579 56.5315C61.6034 58.9391 54.9862 60.1941 48.0688 60.7704C40.2926 61.3958 32.4325 60.893 24.8982 59.288C19.2067 58.1098 13.9446 56.2369 9.51643 53.157C4.72638 49.8706 1.54769 45.423 0.510027 40.5555C-0.820085 34.7318 0.510031 29.1578 3.81655 23.9072C10.7798 12.8328 22.0128 5.3379 37.1361 1.35191C42.8818 -0.162448 48.8652 -0.32253 54.8612 0.465064C56.9623 0.751381 58.948 1.40903 60.6611 2.38602C61.0993 2.61359 61.495 2.88612 61.837 3.19603C61.946 3.28078 62.0321 3.38131 62.0902 3.4918C62.1482 3.6023 62.1771 3.72056 62.1752 3.8397C62.1733 3.95884 62.1405 4.0765 62.0789 4.18584C62.0172 4.29519 61.9279 4.39405 61.8161 4.47667C61.6339 4.62823 61.3874 4.725 61.1207 4.74964C60.8541 4.77428 60.5847 4.72518 60.3609 4.61114C60.1567 4.53571 59.9613 4.4468 59.7772 4.3454C56.1621 2.22915 51.9383 2.00503 47.6602 2.1331C27.9087 2.72539 9.27459 16.1561 4.48786 28.5527C2.84085 32.8172 2.30714 37.1234 3.65393 41.4647C5.91387 48.6683 12.0391 53.2626 20.7786 55.984C27.5626 58.1003 34.6384 58.8814 41.9019 58.8526Z" fill="#4871DC"/>
</svg>
