<svg width="18" height="18" viewBox="0 0 18 18" fill="none" xmlns="http://www.w3.org/2000/svg">
<path d="M12.207 10.5894L9.69728 8.70714V4.87293C9.69728 4.48741 9.38565 4.17578 9.00013 4.17578C8.6146 4.17578 8.30298 4.48741 8.30298 4.87293V9.05575C8.30298 9.27534 8.40616 9.48241 8.58184 9.61347L11.3704 11.7049C11.4958 11.799 11.6423 11.8443 11.788 11.8443C12.0006 11.8443 12.2097 11.7488 12.3464 11.5647C12.5779 11.2573 12.5151 10.8202 12.207 10.5894Z" fill="white"/>
<path d="M9 0C4.0371 0 0 4.0371 0 9C0 13.9629 4.0371 18 9 18C13.9629 18 18 13.9629 18 9C18 4.0371 13.9629 0 9 0ZM9 16.6057C4.80674 16.6057 1.39426 13.1933 1.39426 9C1.39426 4.80674 4.80674 1.39426 9 1.39426C13.194 1.39426 16.6057 4.80674 16.6057 9C16.6057 13.1933 13.1933 16.6057 9 16.6057Z" fill="white"/>
</svg>
